<svg width="30" height="172" viewBox="0 0 30 172" fill="none" xmlns="http://www.w3.org/2000/svg">
    <path d="M19.072 7.2L18.304 5.888C18.56 5.78133 18.784 5.62133 18.976 5.408C19.232 5.088 19.36 4.704 19.36 4.256C19.36 3.776 19.2373 3.40267 18.992 3.136C18.7467 2.88 18.4427 2.752 18.08 2.752C17.5253 2.752 17.0933 3.136 16.784 3.904L16.352 4.976C15.6693 6.65067 14.624 7.488 13.216 7.488C12.2027 7.488 11.376 7.16267 10.736 6.512C10.1067 5.872 9.792 5.05067 9.792 4.048C9.792 3.01333 10.1493 2.176 10.864 1.536C11.4507 1.01333 12.144 0.714666 12.944 0.639999L13.296 2.256C12.784 2.256 12.3307 2.40533 11.936 2.704C11.5093 3.04533 11.296 3.50933 11.296 4.096C11.296 4.59733 11.4613 5.01333 11.792 5.344C12.1227 5.68533 12.5547 5.856 13.088 5.856C13.5787 5.856 13.9573 5.712 14.224 5.424C14.4907 5.14667 14.72 4.77867 14.912 4.32L15.344 3.296C15.952 1.84533 16.8533 1.12 18.048 1.12C18.816 1.12 19.4773 1.39733 20.032 1.952C20.5867 2.51733 20.864 3.28 20.864 4.24C20.864 5.104 20.624 5.81867 20.144 6.384C19.8453 6.71467 19.488 6.98667 19.072 7.2ZM16.432 14.458L14.672 14.458C15.2267 13.8927 15.504 13.258 15.504 12.554C15.504 11.9567 15.3067 11.4607 14.912 11.066C14.528 10.682 14.0107 10.49 13.36 10.49C12.688 10.49 12.1493 10.6927 11.744 11.098C11.3813 11.482 11.2 11.9567 11.2 12.522C11.2 13.3007 11.488 13.946 12.064 14.458L10.32 14.458C9.968 13.8927 9.792 13.21 9.792 12.41C9.792 11.3327 10.1227 10.4793 10.784 9.85C11.4453 9.21 12.288 8.89 13.312 8.89C14.368 8.89 15.2373 9.23133 15.92 9.914C16.5813 10.5753 16.912 11.4767 16.912 12.618C16.912 13.2687 16.752 13.882 16.432 14.458ZM10 15.9607L16.736 15.9607L16.736 17.5287L16.128 17.5287C16.3627 17.7314 16.5493 17.9501 16.688 18.1847C16.8373 18.4407 16.912 18.7607 16.912 19.1447C16.912 19.6034 16.8053 20.0141 16.592 20.3767L15.168 19.7367C15.328 19.4807 15.408 19.2141 15.408 18.9367C15.408 18.5207 15.2853 18.1954 15.04 17.9607C14.7307 17.6727 14.2133 17.5287 13.488 17.5287L10 17.5287L10 15.9607ZM15.904 21.6327C16.576 22.3261 16.912 23.1847 16.912 24.2087C16.912 25.2327 16.576 26.0861 15.904 26.7687C15.2427 27.4621 14.3947 27.8087 13.36 27.8087C12.336 27.8087 11.4827 27.4621 10.8 26.7687C10.128 26.0861 9.792 25.2327 9.792 24.2087C9.792 23.1847 10.128 22.3261 10.8 21.6327C11.4827 20.9501 12.336 20.6087 13.36 20.6087C14.3947 20.6087 15.2427 20.9501 15.904 21.6327ZM11.776 22.7527C11.392 23.1154 11.2 23.6007 11.2 24.2087C11.2 24.8167 11.392 25.3021 11.776 25.6647C12.1707 26.0274 12.6933 26.2087 13.344 26.2087C14.0587 26.2087 14.5973 26.0114 14.96 25.6167C15.3227 25.2327 15.504 24.7634 15.504 24.2087C15.504 23.6541 15.3227 23.1794 14.96 22.7847C14.5973 22.4007 14.0587 22.2087 13.344 22.2087C12.6933 22.2087 12.1707 22.3901 11.776 22.7527ZM21.664 29.4451L21.664 31.0131L10 31.0131L10 29.4451L21.664 29.4451ZM21.664 32.992L21.664 34.56L10 34.56L10 32.992L21.664 32.992ZM15.952 45.2012L21.664 45.2012L21.664 46.7693L10 46.7692L10 45.2012L10.704 45.2012C10.096 44.6786 9.792 44.0066 9.792 43.1852C9.792 42.1932 10.144 41.3986 10.848 40.8012C11.552 40.2146 12.3947 39.9212 13.376 39.9212C14.4427 39.9212 15.296 40.2359 15.936 40.8652C16.5867 41.5052 16.912 42.2839 16.912 43.2012C16.912 44.0439 16.592 44.7106 15.952 45.2012ZM15.504 43.3932C15.504 42.8386 15.296 42.3852 14.88 42.0332C14.464 41.6919 13.952 41.5212 13.344 41.5212C12.7467 41.5212 12.24 41.6919 11.824 42.0332C11.408 42.3852 11.2 42.8386 11.2 43.3932C11.2 43.9266 11.3867 44.3746 11.76 44.7372C12.1333 45.1106 12.656 45.2972 13.328 45.2972C14.0213 45.2972 14.5547 45.1106 14.928 44.7372C15.312 44.3746 15.504 43.9266 15.504 43.3932ZM15.904 49.4296C16.576 50.123 16.912 50.9816 16.912 52.0056C16.912 53.0296 16.576 53.883 15.904 54.5656C15.2427 55.259 14.3947 55.6056 13.36 55.6056C12.336 55.6056 11.4827 55.259 10.8 54.5656C10.128 53.883 9.792 53.0296 9.792 52.0056C9.792 50.9816 10.128 50.123 10.8 49.4296C11.4827 48.747 12.336 48.4056 13.36 48.4056C14.3947 48.4056 15.2427 48.747 15.904 49.4296ZM11.776 50.5496C11.392 50.9123 11.2 51.3976 11.2 52.0056C11.2 52.6136 11.392 53.099 11.776 53.4616C12.1707 53.8243 12.6933 54.0056 13.344 54.0056C14.0587 54.0056 14.5973 53.8083 14.96 53.4136C15.3227 53.0296 15.504 52.5603 15.504 52.0056C15.504 51.451 15.3227 50.9763 14.96 50.5816C14.5973 50.1976 14.0587 50.0056 13.344 50.0056C12.6933 50.0056 12.1707 50.187 11.776 50.5496ZM16.736 56.346L16.736 58.106L12.88 59.85L17.312 61.738L12.88 63.626L16.736 65.37L16.736 67.13L9.52 63.626L13.824 61.738L9.52 59.85L16.736 56.346ZM10 68.1947L16.736 68.1947L16.736 69.7627L16.112 69.7627C16.6453 70.2427 16.912 70.8507 16.912 71.5867C16.912 72.4721 16.608 73.1334 16 73.5707C15.6053 73.8481 14.9813 73.9867 14.128 73.9867L10 73.9867L10 72.4187L13.744 72.4187C14.1493 72.4187 14.48 72.3867 14.736 72.3227C14.992 72.2587 15.168 72.1574 15.264 72.0187C15.3707 71.8801 15.4347 71.7521 15.456 71.6347C15.488 71.5281 15.504 71.3787 15.504 71.1867C15.504 70.9627 15.4827 70.7814 15.44 70.6427C15.408 70.5147 15.3227 70.3707 15.184 70.2107C15.056 70.0614 14.8267 69.9494 14.496 69.8747C14.176 69.8001 13.7547 69.7627 13.232 69.7627L10 69.7627L10 68.1947Z"
          fill="white"/>
    <rect x="13" y="97" width="1" height="75" fill="white"/>
</svg>
